<svg width="1200" height="860" viewBox="0 0 1200 860" fill="none" xmlns="http://www.w3.org/2000/svg">
  <rect width="1200" height="860" fill="#1C1712"/>
  <rect x="58" y="58" width="1084" height="744" rx="22" fill="#211B15" stroke="#3F352A" stroke-width="2"/>
  <rect x="108" y="108" width="984" height="186" rx="16" fill="#C24D33"/>
  <rect x="146" y="154" width="246" height="34" rx="7" fill="#FCEEE6"/>
  <rect x="146" y="208" width="360" height="18" rx="7" fill="#F4D4C9"/>
  <rect x="146" y="238" width="420" height="18" rx="7" fill="#EFC2AF"/>
  <rect x="108" y="330" width="320" height="422" rx="16" fill="#EFE4D7"/>
  <rect x="462" y="330" width="300" height="422" rx="16" fill="#F5EBE0"/>
  <rect x="796" y="330" width="296" height="422" rx="16" fill="#F9F4EE"/>
  <rect x="142" y="366" width="250" height="154" rx="12" fill="#302922"/>
  <circle cx="266" cy="440" r="52" fill="#C24D33"/>
  <rect x="142" y="554" width="110" height="162" rx="10" fill="#C24D33"/>
  <rect x="266" y="554" width="126" height="162" rx="10" fill="#1C1712"/>
  <path d="M492 670C538 612 578 594 620 626C668 664 708 670 742 652" stroke="#C24D33" stroke-width="8" stroke-linecap="round"/>
  <circle cx="620" cy="626" r="11" fill="#C24D33"/>
  <circle cx="700" cy="662" r="11" fill="#C24D33"/>
  <rect x="830" y="366" width="228" height="40" rx="8" fill="#261F18"/>
  <rect x="830" y="424" width="190" height="16" rx="7" fill="#4D4338"/>
  <rect x="830" y="452" width="150" height="16" rx="7" fill="#63594D"/>
  <rect x="830" y="480" width="210" height="16" rx="7" fill="#7C7264"/>
  <rect x="830" y="538" width="228" height="178" rx="12" fill="#D4C4B3"/>
</svg>
